<svg width="40" height="41" viewBox="0 0 40 41" fill="none" xmlns="http://www.w3.org/2000/svg">
<g clip-path="url(#clip0_2160_434)">
<mask id="mask0_2160_434" style="mask-type:luminance" maskUnits="userSpaceOnUse" x="0" y="0" width="40" height="41">
<path d="M0 0.500004H40V40.5H0V0.500004Z" fill="white"/>
</mask>
<g mask="url(#mask0_2160_434)">
<path d="M31.7187 32.2969C30.5573 32.2969 29.4781 32.6053 28.5128 33.104C27.0348 29.8686 23.7895 27.6094 20 27.6094C16.2106 27.6094 12.9652 29.8686 11.4872 33.104C10.5219 32.6053 9.44266 32.2969 8.28125 32.2969C4.39797 32.2969 1.17188 35.4448 1.17188 39.3281H38.8281C38.8281 35.4448 35.602 32.2969 31.7187 32.2969Z" stroke="#309689" stroke-width="2" stroke-miterlimit="10"/>
<path d="M1.34375 4.35889C1.34375 4.35889 2.08539 3.21522 4.06602 2.37467C5.99695 1.5774 9.49984 0.976153 13.8802 3.38467C17.4301 5.45154 20.4044 9.25076 17.2782 12.8704C10.7475 12.9925 6.95828 11.122 3.235 6.98795C1.93781 5.5649 1.34375 4.35889 1.34375 4.35889Z" stroke="#309689" stroke-width="2" stroke-miterlimit="10"/>
<path d="M38.6303 4.35875C38.6303 4.35875 37.8368 3.21508 35.8561 2.37453C33.9252 1.57727 30.5004 0.976016 26.12 3.38453C22.5702 5.45141 19.5959 9.25063 22.7221 12.8702C29.2528 12.9923 32.9639 11.1219 36.6872 6.98781C37.9843 5.56477 38.6303 4.35875 38.6303 4.35875Z" stroke="#309689" stroke-width="2" stroke-miterlimit="10"/>
<path d="M30.8508 6.27051C27.5685 7.60106 24.5963 9.83918 22.7184 12.8695C20.798 15.8771 20.0559 19.4773 19.9977 23.0166C19.9395 19.4773 19.1973 15.8771 17.277 12.8695C15.399 9.83918 12.4267 7.60106 9.14453 6.27051" stroke="#309689" stroke-width="2" stroke-miterlimit="10"/>
<path d="M20 22.7656V27.6094" stroke="#309689" stroke-width="2" stroke-miterlimit="10"/>
</g>
</g>
<defs>
<clipPath id="clip0_2160_434">
<rect width="40" height="40" fill="white" transform="translate(0 0.5)"/>
</clipPath>
</defs>
</svg>
