<svg width="28" height="28" viewBox="0 0 28 28" fill="none" xmlns="http://www.w3.org/2000/svg">
<mask id="mask0_1_640" style="mask-type:luminance" maskUnits="userSpaceOnUse" x="0" y="0" width="28" height="28">
<path d="M0 1.90735e-06H28V28H0V1.90735e-06Z" fill="white"/>
</mask>
<g mask="url(#mask0_1_640)">
<path d="M27.1797 27.1797H0.820312V25.5877C0.820312 24.0559 2.06205 22.8142 3.59384 22.8142H24.4062C25.938 22.8142 27.1797 24.0559 27.1797 25.5877V27.1797Z" stroke="white" stroke-width="2" stroke-miterlimit="10"/>
<path d="M11.5432 5.74214V0.820267H24.3766V22.8142H11.5432" stroke="white" stroke-width="2" stroke-miterlimit="10"/>
<path d="M3.62354 5.8333H16.4569V22.8142H3.62354V5.8333Z" stroke="white" stroke-width="2" stroke-miterlimit="10"/>
<path d="M7.99854 9.58423V13.0842" stroke="white" stroke-width="2" stroke-miterlimit="10"/>
<path d="M12.0818 9.58423V13.0842" stroke="white" stroke-width="2" stroke-miterlimit="10"/>
<path d="M7.99854 15.7822V19.2822" stroke="white" stroke-width="2" stroke-miterlimit="10"/>
<path d="M12.0818 15.7822V19.2822" stroke="white" stroke-width="2" stroke-miterlimit="10"/>
<path d="M20.0015 9.58423V13.0842" stroke="white" stroke-width="2" stroke-miterlimit="10"/>
<path d="M20.0015 15.7822V19.2822" stroke="white" stroke-width="2" stroke-miterlimit="10"/>
<path d="M20.0015 3.38623V6.88623" stroke="white" stroke-width="2" stroke-miterlimit="10"/>
</g>
</svg>
