<svg width="134" height="48" viewBox="0 0 134 48" fill="none" xmlns="http://www.w3.org/2000/svg">
<g clip-path="url(#clip0_1_675)">
<path d="M15.135 6H0.5V41L15.135 6Z" fill="white"/>
<path d="M25.4321 6H40.048V41L25.4321 6Z" fill="white"/>
<path d="M20.2837 18.8999L29.5986 41.0001H23.4872L20.7032 33.9639H13.8862L20.2837 18.8999Z" fill="white"/>
<path d="M63.9236 28.2577L65.6493 33.2059C65.7065 33.3298 65.7923 33.3871 65.9448 33.3871H69.2627C69.4439 33.3871 69.4725 33.3012 69.4439 33.1201L62.5888 14.0803C62.5602 13.9278 62.5316 13.8992 62.379 13.8992H58.2603C58.1459 13.8992 58.0791 13.985 58.0791 14.1089C58.0219 15.11 57.9361 15.4151 57.8122 15.7107L51.7007 33.0915C51.6721 33.3012 51.7389 33.3871 51.9105 33.3871H54.8756C55.0568 33.3871 55.1426 33.3298 55.2093 33.1487L56.8397 28.2577H63.9236ZM57.7836 25.0256C58.6798 22.3179 59.862 18.8474 60.3387 16.8643H60.3673C60.9584 18.9428 62.3504 23.0615 62.9797 25.0256H57.7836Z" fill="white"/>
<path d="M78.2567 33.6828C80.0396 33.6828 81.9369 33.3587 83.8628 32.5292C84.0154 32.472 84.044 32.4052 84.044 32.2622C83.9867 31.7283 83.92 30.956 83.92 30.3649V12.4407C83.92 12.3262 83.92 12.269 83.777 12.269H80.5449C80.421 12.269 80.3638 12.3262 80.3638 12.4788V18.5521C79.8584 18.4949 79.5057 18.4663 79.0862 18.4663C73.871 18.4663 70.6675 21.9081 70.6675 26.208C70.6675 31.1944 73.9568 33.6828 78.2567 33.6828ZM80.3638 30.3649C79.8298 30.5365 79.2387 30.6033 78.6381 30.6033C76.2736 30.6033 74.3381 29.2685 74.3381 26.0269C74.3381 23.1571 76.3308 21.46 78.9718 21.46C79.5057 21.46 79.9729 21.5172 80.3638 21.6698V30.3649Z" fill="white"/>
<path d="M94.3548 18.4661C89.9024 18.4661 87.147 21.8793 87.147 26.0934C87.147 29.8594 89.3398 33.6826 94.2881 33.6826C98.4736 33.6826 101.41 30.6031 101.41 25.9981C101.41 21.9365 98.9217 18.4661 94.3548 18.4661ZM94.1737 21.4598C96.6907 21.4598 97.7585 23.6241 97.7585 26.0934C97.7585 29.1444 96.1854 30.6603 94.3548 30.6603C92.0952 30.6603 90.7604 28.763 90.7604 26.0267C90.7604 23.2141 92.181 21.4598 94.1737 21.4598Z" fill="white"/>
<path d="M104.752 12.269C104.628 12.269 104.542 12.3262 104.542 12.4788V32.7675C104.542 32.8534 104.628 33.0059 104.752 33.0345C106.172 33.4731 107.66 33.6828 109.195 33.6828C113.59 33.6828 117.861 30.956 117.861 25.4644C117.861 21.4886 115.134 18.4663 110.863 18.4663C109.881 18.4663 108.966 18.6188 108.165 18.8858L108.127 12.5074C108.127 12.2976 108.07 12.269 107.86 12.269H104.752ZM114.21 25.8267C114.21 29.1159 111.959 30.6605 109.528 30.6605C109.023 30.6605 108.575 30.6319 108.165 30.5079V21.8509C108.632 21.6698 109.195 21.5172 110.234 21.5172C112.579 21.5172 114.21 23.0045 114.21 25.8267Z" fill="white"/>
<path d="M129.923 26.8943C131.372 26.8943 132.564 26.8657 132.974 26.7703C133.127 26.7417 133.184 26.6845 133.213 26.5606C133.298 26.2364 133.336 25.5595 133.336 24.73C133.336 21.9079 131.639 18.4661 127.254 18.4661C122.773 18.4661 120.284 22.1177 120.284 26.2364C120.284 29.888 122.21 33.6826 127.606 33.6826C129.628 33.6826 130.934 33.3585 132.059 32.8246C132.173 32.7673 132.23 32.672 132.23 32.5004V30.031C132.23 29.888 132.145 29.8594 132.059 29.9166C130.934 30.3933 129.713 30.6317 128.379 30.6317C125.356 30.6317 123.983 28.9632 123.898 26.8943H129.923ZM123.898 24.3391C124.136 22.8899 125.051 21.3168 127.101 21.3168C129.361 21.3168 129.952 23.2141 129.952 24.0722C129.952 24.1008 129.952 24.2247 129.952 24.3105C129.828 24.3391 129.447 24.3391 128.321 24.3391H123.898Z" fill="white"/>
</g>
<defs>
<clipPath id="clip0_1_675">
<rect width="133" height="48" fill="white" transform="translate(0.5)"/>
</clipPath>
</defs>
</svg>
