<svg width="20" height="20" viewBox="0 0 20 20" fill="none" xmlns="http://www.w3.org/2000/svg">
<path d="M9.07763 1.2022C9.42034 0.383963 10.5797 0.383962 10.9224 1.2022L12.9535 6.05165C13.0977 6.39588 13.4215 6.63119 13.7935 6.66193L19.0332 7.09509C19.9173 7.16818 20.2756 8.27075 19.6033 8.84953L15.6188 12.2798C15.336 12.5233 15.2123 12.904 15.298 13.2673L16.5052 18.3844C16.7089 19.2478 15.771 19.9293 15.0128 19.4687L10.5191 16.7393C10.2002 16.5456 9.79984 16.5456 9.48087 16.7393L4.9872 19.4687C4.229 19.9293 3.2911 19.2478 3.49479 18.3844L4.702 13.2673C4.7877 12.904 4.66399 12.5233 4.38116 12.2798L0.396711 8.84953C-0.275577 8.27075 0.0826712 7.16818 0.966765 7.09509L6.20652 6.66193C6.57846 6.63119 6.90233 6.39588 7.0465 6.05165L9.07763 1.2022Z" fill="#FFC107"/>
</svg>
