<svg width="20" height="20" viewBox="0 0 20 20" fill="none" xmlns="http://www.w3.org/2000/svg">
<path d="M18.3351 14.0999V16.5999C18.3361 16.832 18.2886 17.0617 18.1956 17.2744C18.1026 17.487 17.9662 17.6779 17.7952 17.8348C17.6242 17.9917 17.4223 18.1112 17.2024 18.1855C16.9826 18.2599 16.7496 18.2875 16.5185 18.2666C13.9542 17.988 11.491 17.1117 9.32682 15.7083C7.31334 14.4288 5.60626 12.7217 4.32682 10.7083C2.91846 8.53426 2.04202 6.05908 1.76848 3.48325C1.74766 3.25281 1.77505 3.02055 1.8489 2.80127C1.92275 2.58199 2.04146 2.38049 2.19745 2.2096C2.35345 2.03871 2.54332 1.90218 2.75498 1.80869C2.96663 1.7152 3.19543 1.6668 3.42682 1.66658H5.92682C6.33124 1.6626 6.72331 1.80582 7.02995 2.06953C7.33659 2.33324 7.53688 2.69946 7.59348 3.09992C7.699 3.89997 7.89469 4.68552 8.17682 5.44158C8.28894 5.73985 8.3132 6.06401 8.24674 6.37565C8.18028 6.68729 8.02587 6.97334 7.80182 7.19992L6.74348 8.25825C7.92978 10.3445 9.65719 12.072 11.7435 13.2583L12.8018 12.1999C13.0284 11.9759 13.3144 11.8215 13.6261 11.755C13.9377 11.6885 14.2619 11.7128 14.5601 11.8249C15.3162 12.107 16.1018 12.3027 16.9018 12.4083C17.3066 12.4654 17.6763 12.6693 17.9406 12.9812C18.2049 13.2931 18.3453 13.6912 18.3351 14.0999Z" stroke="#6C757D" stroke-width="1.5" stroke-linecap="round" stroke-linejoin="round"/>
</svg>
