<svg width="24" height="24" viewBox="0 0 24 24" fill="none" xmlns="http://www.w3.org/2000/svg">
<path d="M12 17.7174C16.4183 17.7174 20 14.1357 20 9.71741C20 5.29913 16.4183 1.71741 12 1.71741C7.58172 1.71741 4 5.29913 4 9.71741C4 14.1357 7.58172 17.7174 12 17.7174Z" stroke="#309689" stroke-width="2" stroke-miterlimit="10"/>
<path d="M14.3982 10.4965L16.5159 8.25125L13.4829 7.67952L12.002 4.97168L10.521 7.67952L7.48804 8.25125L9.60571 10.4965L9.2122 13.5577L12.002 12.2375L14.7917 13.5577L14.3982 10.4965Z" stroke="#309689" stroke-width="2" stroke-miterlimit="10"/>
<path d="M6.23999 15.2686V19.7223C7.1807 19.7223 8.05315 19.433 8.77345 18.9385" stroke="#309689" stroke-width="2" stroke-miterlimit="10"/>
<path d="M17.7583 15.2686V19.7223C16.8176 19.7223 15.9452 19.433 15.2249 18.9385" stroke="#309689" stroke-width="2" stroke-miterlimit="10"/>
<path d="M8.80005 17.0519V22.2833C10.0544 22.2833 11.1872 21.7689 12 20.9397C12.8129 21.7689 13.9457 22.2833 15.2 22.2833V17.0516" stroke="#309689" stroke-width="2" stroke-miterlimit="10"/>
</svg>
